<mxfile host="app.diagrams.net" agent="Mozilla/5.0 (Windows NT 10.0; Win64; x64) AppleWebKit/537.36 (KHTML, like Gecko) Chrome/129.0.0.0 Safari/537.36" version="24.7.16">
  <diagram name="Page-1" id="F1ror_x5WQ4-E2oqDE8Z">
    <mxGraphModel dx="2074" dy="1132" grid="1" gridSize="10" guides="1" tooltips="1" connect="1" arrows="1" fold="1" page="1" pageScale="1" pageWidth="850" pageHeight="1100" math="0" shadow="0">
      <root>
        <mxCell id="0" />
        <mxCell id="1" parent="0" />
        <mxCell id="AtetjiBsX2MF_gLAkqF6-7" style="edgeStyle=orthogonalEdgeStyle;rounded=0;orthogonalLoop=1;jettySize=auto;html=1;" edge="1" parent="1" source="AtetjiBsX2MF_gLAkqF6-1">
          <mxGeometry relative="1" as="geometry">
            <mxPoint x="420" y="475" as="targetPoint" />
          </mxGeometry>
        </mxCell>
        <mxCell id="AtetjiBsX2MF_gLAkqF6-1" value="" style="rounded=0;whiteSpace=wrap;html=1;" vertex="1" parent="1">
          <mxGeometry x="100" y="435" width="220" height="80" as="geometry" />
        </mxCell>
        <mxCell id="AtetjiBsX2MF_gLAkqF6-6" style="edgeStyle=orthogonalEdgeStyle;rounded=0;orthogonalLoop=1;jettySize=auto;html=1;entryX=0;entryY=0.5;entryDx=0;entryDy=0;" edge="1" parent="1" source="AtetjiBsX2MF_gLAkqF6-2" target="AtetjiBsX2MF_gLAkqF6-3">
          <mxGeometry relative="1" as="geometry" />
        </mxCell>
        <mxCell id="AtetjiBsX2MF_gLAkqF6-2" value="" style="rounded=0;whiteSpace=wrap;html=1;" vertex="1" parent="1">
          <mxGeometry x="425" y="440" width="195" height="80" as="geometry" />
        </mxCell>
        <mxCell id="AtetjiBsX2MF_gLAkqF6-3" value="" style="rounded=0;whiteSpace=wrap;html=1;" vertex="1" parent="1">
          <mxGeometry x="730" y="442.5" width="150" height="75" as="geometry" />
        </mxCell>
        <mxCell id="AtetjiBsX2MF_gLAkqF6-4" value="" style="shape=cylinder3;whiteSpace=wrap;html=1;boundedLbl=1;backgroundOutline=1;size=15;" vertex="1" parent="1">
          <mxGeometry x="980" y="440" width="60" height="80" as="geometry" />
        </mxCell>
        <mxCell id="AtetjiBsX2MF_gLAkqF6-5" style="edgeStyle=orthogonalEdgeStyle;rounded=0;orthogonalLoop=1;jettySize=auto;html=1;entryX=0;entryY=0.5;entryDx=0;entryDy=0;entryPerimeter=0;" edge="1" parent="1" source="AtetjiBsX2MF_gLAkqF6-3" target="AtetjiBsX2MF_gLAkqF6-4">
          <mxGeometry relative="1" as="geometry" />
        </mxCell>
      </root>
    </mxGraphModel>
  </diagram>
</mxfile>
